<svg xmlns="http://www.w3.org/2000/svg" viewBox="0 0 32 32" fill="none">
  <path d="M16 4C16 4 10 8 10 14C10 17 11.5 19 13 20.5C13 20.5 12 17 14 14C14 14 14 18 15 21C15.5 22.5 16 24 16 28" stroke="#5A8A6A" stroke-width="2" stroke-linecap="round" stroke-linejoin="round"/>
  <path d="M16 4C16 4 22 8 22 14C22 17 20.5 19 19 20.5C19 20.5 20 17 18 14C18 14 18 18 17 21C16.5 22.5 16 24 16 28" stroke="#5A8A6A" stroke-width="2" stroke-linecap="round" stroke-linejoin="round"/>
  <path d="M13 20.5C11 22 8.5 22.5 7 22" stroke="#5A8A6A" stroke-width="1.5" stroke-linecap="round" opacity="0.5"/>
  <path d="M19 20.5C21 22 23.5 22.5 25 22" stroke="#5A8A6A" stroke-width="1.5" stroke-linecap="round" opacity="0.5"/>
</svg>
